<svg xmlns="http://www.w3.org/2000/svg" xmlns:xlink="http://www.w3.org/1999/xlink" viewBox="0,0,256,256" width="24px" height="24px" fill-rule="nonzero"><g fill="#000000" fill-rule="nonzero" stroke="none" stroke-width="1" stroke-linecap="butt" stroke-linejoin="miter" stroke-miterlimit="10" stroke-dasharray="" stroke-dashoffset="0" font-family="none" font-weight="none" font-size="none" text-anchor="none" style="mix-blend-mode: normal"><g transform="scale(10.66667,10.66667)"><path d="M5.69922,2l1.5,5.30078v2.59961h1.20117v-2.59961l1.5,-5.30078h-1.30078l-0.5,2.40039c-0.2,0.7 -0.29883,1.2 -0.29883,1.5c-0.1,-0.4 -0.20078,-0.9 -0.30078,-1.5l-0.5,-2.40039zM11.40039,4c-0.4,0 -0.8,0.10078 -1,0.30078c-0.3,0.1 -0.49961,0.39883 -0.59961,0.79883c-0.1,0.4 -0.20117,0.9 -0.20117,1.5v0.80078c0,0.7 0.09961,1.1 0.09961,1.5c0.2,0.4 0.30156,0.59883 0.60156,0.79883c0.3,0.2 0.6,0.30078 1,0.30078c0.5,0 0.79961,-0.10078 1.09961,-0.30078c0.3,-0.2 0.49961,-0.39883 0.59961,-0.79883c0.1,-0.4 0.19922,-0.9 0.19922,-1.5v-0.80078c0,-0.6 -0.09922,-1.1 -0.19922,-1.5c-0.2,-0.3 -0.39961,-0.59883 -0.59961,-0.79883c-0.2,-0.2 -0.6,-0.30078 -1,-0.30078zM13.90039,4.09961v4.30078c0,0.6 0.09883,0.99922 0.29883,1.19922c0.1,0.3 0.40078,0.40039 0.80078,0.40039c0.6,0 1.00078,-0.30078 1.30078,-0.80078l0.09961,0.70117h1v-5.80078h-1.30078v4.59961c0,0.1 -0.09922,0.20078 -0.19922,0.30078c-0.1,0.1 -0.20078,0.09961 -0.30078,0.09961c-0.1,0 -0.19883,0.00078 -0.29883,-0.19922c-0.1,-0.2 -0.10156,-0.29961 -0.10156,-0.59961v-4.20117zM11.40039,4.90039c0.2,0 0.30039,0.09883 0.40039,0.29883c0.1,0.2 0.09961,0.50039 0.09961,0.90039v1.80078c0,0.4 0.00039,0.70039 -0.09961,0.90039c-0.1,0.2 -0.20039,0.29883 -0.40039,0.29883c-0.2,0 -0.30039,-0.09883 -0.40039,-0.29883c-0.1,-0.2 -0.09961,-0.50039 -0.09961,-0.90039v-1.80078c0,-0.4 -0.00039,-0.70039 0.09961,-0.90039c0.1,-0.2 0.20039,-0.29883 0.40039,-0.29883zM5,11c-1.1,0 -2,0.9 -2,2v7c0,1.1 0.9,2 2,2h14c1.1,0 2,-0.9 2,-2v-7c0,-1.1 -0.9,-2 -2,-2zM12,13h1.09961v2.59961c0.1,-0.2 0.20039,-0.30039 0.40039,-0.40039c0.2,-0.1 0.39961,-0.19922 0.59961,-0.19922c0.3,0 0.49961,0.09922 0.59961,0.19922c0.1,0.1 0.30078,0.40117 0.30078,0.70117c0.1,0.3 0.09961,0.69883 0.09961,1.29883v0.70117c0,0.7 -0.09883,1.29961 -0.29883,1.59961c-0.2,0.3 -0.40078,0.5 -0.80078,0.5c-0.2,0 -0.39961,0.00039 -0.59961,-0.09961c-0.2,-0.1 -0.30039,-0.20039 -0.40039,-0.40039v0.40039h-1zM5.5,13.19922h3.30078v0.90039h-1.20117v5.80078h-1v-5.80078h-1.09961zM17.09961,14.80078c0.4,0 0.70039,0.09922 0.90039,0.19922c0.2,0.1 0.30039,0.39961 0.40039,0.59961c0.1,0.3 0.09961,0.70117 0.09961,1.20117v1h-1.80078v0.19922v0.69922c0,0.2 0.10156,0.30078 0.10156,0.30078c0.1,0.1 0.09883,0.09961 0.29883,0.09961c0.2,0 0.30078,-0.09922 0.30078,-0.19922c0.1,-0.1 0.09961,-0.29961 0.09961,-0.59961l0.90039,0.09961v0.19922c0,0.5 -0.10039,0.8 -0.40039,1c-0.2,0.2 -0.6,0.30078 -1,0.30078c-0.5,0 -0.89961,-0.2 -1.09961,-0.5c-0.2,-0.3 -0.30078,-0.89961 -0.30078,-1.59961v-0.90039c0,-0.7 0.10078,-1.29961 0.30078,-1.59961c0.2,-0.3 0.59922,-0.5 1.19922,-0.5zM8.5,15h1.09961v3.59961c0,0.2 -0.00039,0.4 0.09961,0.5c0,0.1 0.10117,0.09961 0.20117,0.09961c0.1,0 0.19883,0.00039 0.29883,-0.09961c0.1,-0.1 0.20117,-0.09922 0.20117,-0.19922v-3.90039h1.09961l-0.09961,4.90039h-0.90039l-0.09961,-0.59961c-0.2,0.5 -0.6,0.69922 -1,0.69922c-0.3,0 -0.60117,-0.10078 -0.70117,-0.30078c-0.2,-0.2 -0.19922,-0.5 -0.19922,-1zM17,15.69922c-0.2,0 -0.20078,0.00156 -0.30078,0.10156c-0.1,0.1 -0.09961,0.19883 -0.09961,0.29883v0.70117v0.39844h0.80078v-0.39844v-0.70117c0,-0.1 0.00039,-0.19883 -0.09961,-0.29883c-0.1,-0.1 -0.10078,-0.10156 -0.30078,-0.10156zM13.59961,15.80078c-0.1,0 -0.19883,-0.00039 -0.29883,0.09961c-0.1,0.1 -0.20117,0.19883 -0.20117,0.29883v2.80078c0,0.1 0.10117,0.09922 0.20117,0.19922c0.1,0 0.19883,0.10156 0.29883,0.10156c0.1,0 0.20078,-0.00156 0.30078,-0.10156c0.1,-0.1 0.09961,-0.19844 0.09961,-0.39844v-0.80078v-0.59961v-0.90039c0,-0.2 -0.09961,-0.59961 -0.09961,-0.59961c-0.1,-0.1 -0.10078,-0.09961 -0.30078,-0.09961z"></path></g></g></svg>